<svg width="74" height="50" viewBox="0 0 74 50" fill="none" xmlns="http://www.w3.org/2000/svg">
<path d="M72.9416 32.7906C72.6819 31.9178 72.1172 31.1673 71.3503 30.6758C70.5835 30.1843 69.6656 29.9846 68.7637 30.113C67.8619 30.2414 67.0363 30.6894 66.4372 31.3754C65.8381 32.0613 65.5054 32.9396 65.4998 33.8502C65.1029 33.8885 64.7028 33.9172 64.306 33.9331C64.2598 32.9196 63.8664 31.9527 63.1915 31.1949C62.5167 30.4371 61.6017 29.9345 60.6 29.7713C59.5983 29.6082 58.5709 29.7945 57.6904 30.2991C56.8099 30.8036 56.1298 31.5956 55.7643 32.5421C55.3042 32.3678 54.851 32.1793 54.4047 31.9764C54.8917 30.9053 55.0041 29.7016 54.724 28.5588C54.4439 27.4161 53.7875 26.4007 52.8604 25.6759C51.9333 24.9512 50.7892 24.5592 49.6123 24.563C48.4354 24.5668 47.294 24.9662 46.3715 25.6969C46.0198 25.2539 45.6861 24.7977 45.3706 24.3281C47.6826 23.1887 49.4798 21.2196 50.4037 18.8139C51.3275 16.4081 51.3099 13.7426 50.3545 11.3493C49.399 8.95589 47.576 7.01067 45.2491 5.90178C42.9223 4.79288 40.2627 4.60186 37.8012 5.36683C37.5812 5.43376 37.366 5.51024 37.1525 5.5915L50.0359 35.058C50.1953 35.0437 50.3626 35.023 50.5268 34.9943C51.7393 34.7818 52.8378 34.1481 53.6285 33.2049C54.231 33.4843 54.8446 33.7387 55.4694 33.9681C55.4471 34.4637 55.5096 34.9595 55.6543 35.4341C55.9723 36.4645 56.6551 37.3436 57.575 37.9068C58.4948 38.47 59.5885 38.6785 60.6512 38.4934C60.8326 38.4611 61.012 38.418 61.1883 38.3643C61.745 38.1962 62.2628 37.9194 62.7118 37.5499C63.1608 37.1804 63.5319 36.7255 63.8039 36.2116C63.9432 35.9489 64.0558 35.673 64.1402 35.3878C64.6805 35.3703 65.2208 35.3289 65.758 35.2731C66.073 36.0963 66.6642 36.7847 67.4304 37.2206C68.1967 37.6565 69.0906 37.8129 69.9595 37.6632C70.1158 37.636 70.2702 37.5988 70.4217 37.5517C71.3865 37.253 72.1936 36.5842 72.6659 35.6918C73.1383 34.7993 73.2374 33.756 72.9416 32.7906Z" fill="white"/>
<path d="M10.7908 48.334C14.9092 47.4137 17.5016 43.33 16.581 39.2129C15.6604 35.0958 11.5755 32.5042 7.45708 33.4245C3.33865 34.3448 0.746276 38.4284 1.66685 42.5456C2.58743 46.6627 6.67236 49.2542 10.7908 48.334Z" fill="white"/>
<path d="M44.5927 31.3642C44.3542 30.587 44.2997 29.7649 44.4336 28.9629C44.5675 28.161 44.8861 27.4011 45.3642 26.7434C44.8816 26.1473 44.4294 25.5272 44.0094 24.8855C43.9456 24.9062 43.885 24.9349 43.8197 24.954C43.4127 25.0783 42.9986 25.1778 42.5796 25.252C40.0699 25.6903 37.4868 25.1781 35.3343 23.8156C33.1818 22.453 31.6143 20.3376 30.9375 17.8822C30.2607 15.4267 30.5231 12.8073 31.6737 10.5348C32.8242 8.26239 34.7803 6.49991 37.1604 5.5912L35.5203 1.86586C35.278 1.31138 34.8791 0.839571 34.3727 0.508178C33.8662 0.176785 33.2741 0.000187369 32.6688 0L18.0593 0L39.2835 48.5171H55.9205L50.0359 35.0625C48.8431 35.1569 47.6538 34.8419 46.6642 34.1695C45.6747 33.4972 44.944 32.5077 44.5927 31.3642Z" fill="white"/>
</svg>
