<svg width="20" height="20" viewBox="0 0 20 20" fill="none" xmlns="http://www.w3.org/2000/svg">
<path d="M12.14 4.18004C13.0311 5.07224 13.5889 6.24338 13.7199 7.49756C13.851 8.75173 13.5474 10.0129 12.86 11.07C12.98 11.17 13.08 11.28 13.22 11.38C13.42 11.54 13.69 11.74 14.03 11.97C14.37 12.21 14.59 12.36 14.69 12.44C15.11 12.75 15.42 13.01 15.63 13.22C15.95 13.54 16.23 13.87 16.47 14.22C16.72 14.57 16.91 14.91 17.06 15.26C17.2 15.61 17.27 15.94 17.24 16.26C17.22 16.58 17.1 16.85 16.88 17.07C16.66 17.29 16.39 17.41 16.07 17.43C15.76 17.45 15.42 17.39 15.08 17.24C14.73 17.1 14.38 16.9 14.04 16.65C13.69 16.41 13.36 16.13 13.04 15.81C12.83 15.6 12.57 15.29 12.27 14.88C12.17 14.75 12.02 14.53 11.8 14.22C11.58 13.9 11.4 13.65 11.24 13.44C11.08 13.24 10.95 13.09 10.8 12.94C9.76205 13.4835 8.57772 13.6816 7.41942 13.5053C6.26112 13.329 5.18931 12.7877 4.36 11.96C2.22 9.81004 2.22 6.32004 4.36 4.18004C4.87063 3.6688 5.47701 3.26324 6.14449 2.98652C6.81197 2.70981 7.52744 2.56738 8.25 2.56738C8.97257 2.56738 9.68804 2.70981 10.3555 2.98652C11.023 3.26324 11.6294 3.6688 12.14 4.18004ZM10.73 10.54C11.3833 9.88197 11.7499 8.99231 11.7499 8.06504C11.7499 7.13777 11.3833 6.2481 10.73 5.59004C10.4053 5.2644 10.0196 5.00603 9.59488 4.82974C9.17017 4.65345 8.71485 4.56271 8.255 4.56271C7.79516 4.56271 7.33984 4.65345 6.91513 4.82974C6.49042 5.00603 6.10468 5.2644 5.78 5.59004C5.45437 5.91471 5.196 6.30046 5.01971 6.72517C4.84342 7.14987 4.75268 7.6052 4.75268 8.06504C4.75268 8.52488 4.84342 8.9802 5.01971 9.40491C5.196 9.82962 5.45437 10.2154 5.78 10.54C6.10468 10.8657 6.49042 11.124 6.91513 11.3003C7.33984 11.4766 7.79516 11.5674 8.255 11.5674C8.71485 11.5674 9.17017 11.4766 9.59488 11.3003C10.0196 11.124 10.4053 10.8657 10.73 10.54Z" fill="white"/>
</svg>
